<svg width="81" height="55" viewBox="0 0 81 55" fill="none" xmlns="http://www.w3.org/2000/svg">
<path d="M79.5656 0.00431148L78.1833 0.0662064C73.9333 0.303465 69.7658 0.612933 65.5158 0.953347C57.0261 1.66512 48.6086 2.55226 40.1601 3.59414C31.7116 4.63601 23.2941 5.85325 14.8869 7.24585C10.6885 7.94731 6.38688 8.69004 2.19876 9.50497L1.09499 9.70096C0.768066 9.80626 0.484415 10.0153 0.287078 10.2964C0.0897405 10.5775 -0.0105107 10.9154 0.00153843 11.2586V45.6301C-0.00690536 45.8001 0.0194746 45.9699 0.0790615 46.1293C0.138648 46.2886 0.230184 46.4341 0.348044 46.5568C0.465904 46.6795 0.607599 46.7768 0.764431 46.8427C0.921263 46.9087 1.08992 46.9418 1.26004 46.9402H2.47728C6.73761 46.703 11.1114 46.4038 15.3511 46.0531L17.7959 45.8468L28.782 54.4087C29.4009 54.8832 29.8136 54.6666 29.8136 53.9136V44.6295C33.7129 44.2375 37.117 43.8249 40.6965 43.3813C49.145 42.3498 57.645 41.1325 66.0522 39.7503C70.2506 39.0488 74.3047 38.3061 78.5238 37.4911L79.7719 37.2333C80.1295 37.1313 80.4435 36.9143 80.6654 36.616C80.8873 36.3177 81.0047 35.9545 80.9995 35.5828V1.28345C81.0045 1.10789 80.9723 0.933271 80.9052 0.770992C80.838 0.608712 80.7374 0.46243 80.6098 0.341702C80.4823 0.220973 80.3307 0.128515 80.165 0.0703776C79.9993 0.0122397 79.8232 -0.0102727 79.6481 0.00431148" fill="#E63323"/>
<path d="M62.2866 31.1041C55.0451 31.723 47.8242 32.476 40.6239 33.3632C33.4236 34.2503 26.2233 35.2475 19.0231 36.3547C15.4332 36.922 11.8022 37.5203 8.17107 38.1702L6.36584 38.4797V39.9548L8.42896 39.8414C10.2445 39.7279 12.1116 39.6041 13.9272 39.47C15.7427 39.3359 17.5789 39.1915 19.3944 39.0367C26.6153 38.4178 33.8362 37.6545 41.0572 36.7879C48.2781 35.9214 55.499 34.9208 62.658 33.7964C64.501 33.5076 66.3475 33.2084 68.1975 32.899C69.9408 32.5998 71.55 32.3007 73.2934 31.9809C74.0567 31.8365 74.8716 31.7024 75.4493 31.5579V30.1963L73.0664 30.3407C69.425 30.5573 65.928 30.8359 62.2969 31.1453" fill="#EEEDE3"/>
<path d="M19.3534 16.0776C26.6086 15.4518 33.8296 14.6987 41.0161 13.8185C48.2026 12.9382 55.4029 11.9445 62.6169 10.8373C66.2067 10.2699 69.6624 9.6716 73.242 9.02172C74.0053 8.8773 74.8202 8.73288 75.3979 8.58846V7.18555C74.8202 7.18555 73.8506 7.2887 73.015 7.34028C69.3736 7.55691 65.7941 7.83543 62.1836 8.1449C54.9627 8.76383 47.7418 9.51687 40.5209 10.3937C33.3 11.2705 26.0791 12.2608 18.9304 13.3852C15.3406 13.9526 11.7095 14.5509 8.08873 15.2008C7.52138 15.3142 6.8715 15.4174 6.29382 15.5205V16.9957L8.35694 16.8822C11.988 16.6552 15.7223 16.3767 19.343 16.0776" fill="#EEEDE3"/>
<path d="M25.481 22.1837V20.1206L20.3851 20.7292L18.5179 20.9459C18.2906 20.9682 18.077 21.0654 17.9109 21.2223C17.7447 21.3791 17.6353 21.5866 17.5999 21.8124V30.4775C17.6111 30.5824 17.6436 30.6839 17.6955 30.7757C17.7474 30.8676 17.8175 30.9479 17.9016 31.0117C17.9856 31.0754 18.0818 31.1213 18.1843 31.1466C18.2867 31.1718 18.3933 31.1758 18.4973 31.1583L20.3438 30.952L25.7492 30.3124V28.2493L20.0446 28.8785V26.9805L24.3875 26.4647V24.4016L20.0446 24.9174V22.8542L25.481 22.1837Z" fill="#EEEDE3"/>
<path d="M8.99657 32.3105L12.8237 31.8463C13.0989 31.8172 13.3656 31.733 13.6076 31.5988C13.9864 31.3582 14.333 31.0705 14.6392 30.7426C14.965 30.4286 15.2587 30.0831 15.516 29.711C15.6408 29.4793 15.708 29.2211 15.712 28.958V23.8827C15.7121 23.6353 15.6443 23.3927 15.516 23.1812C15.2632 22.858 14.9683 22.5701 14.6392 22.325C14.3249 22.0758 13.9778 21.871 13.6076 21.7164C13.3489 21.6642 13.0824 21.6642 12.8237 21.7164L8.99657 22.1806H8.82121L7.11914 22.3663C6.89025 22.3892 6.67558 22.4879 6.50923 22.6468C6.34289 22.8056 6.23441 23.0155 6.20105 23.2431V31.9082C6.21472 32.0137 6.2497 32.1153 6.30387 32.2068C6.35804 32.2983 6.43026 32.3778 6.51615 32.4406C6.60203 32.5033 6.69977 32.5479 6.80344 32.5716C6.9071 32.5954 7.01451 32.5978 7.11914 32.5787L8.76963 32.3827L8.99657 32.3105ZM8.91405 28.3081V24.1818L11.9571 23.8208C12.1321 23.8056 12.3076 23.8414 12.4626 23.924L12.9578 24.2541C13.0216 24.2984 13.0743 24.3568 13.1119 24.4248C13.1494 24.4927 13.1708 24.5685 13.1744 24.646V28.7723C13.1638 28.946 13.0861 29.1087 12.9578 29.2262L12.4729 29.6697C12.3183 29.7865 12.1379 29.8644 11.9468 29.8967L8.90373 30.2577L8.91405 28.3081Z" fill="#EEEDE3"/>
<path d="M58.604 19.1502C58.6277 18.9759 58.7116 18.8153 58.8413 18.6964L59.3364 18.2425C59.4819 18.1298 59.6513 18.0521 59.8316 18.0155L61.8947 17.768C62.0691 17.7516 62.2449 17.7727 62.4105 17.8298L63.8753 18.3869L64.9069 16.5198C64.2236 16.1249 63.4765 15.8526 62.6993 15.7152C62.4327 15.6737 62.1613 15.6737 61.8947 15.7152L59.027 16.0453C58.753 16.0805 58.4875 16.1643 58.243 16.2928C57.8667 16.5368 57.5205 16.8241 57.2114 17.149C56.8899 17.4612 56.6029 17.8071 56.3552 18.1806C56.2316 18.4127 56.1644 18.6707 56.1592 18.9336V24.0089C56.1591 24.2562 56.2269 24.4989 56.3552 24.7103C56.6001 25.0306 56.8882 25.3153 57.2114 25.5562C57.5231 25.8066 57.8709 26.0083 58.243 26.1545C58.4966 26.2325 58.7643 26.2536 59.027 26.2164L61.936 25.9482C62.2111 25.9099 62.481 25.8407 62.7406 25.7419C63.5352 25.3954 64.2781 24.9407 64.9481 24.3906L63.9166 22.7813L62.4517 23.6994C62.2922 23.7915 62.1176 23.8544 61.936 23.8851L59.8728 24.1327C59.7014 24.1453 59.5298 24.1096 59.3777 24.0295L58.8826 23.6994C58.8182 23.6562 58.7638 23.5999 58.7229 23.5341C58.682 23.4683 58.6555 23.3945 58.6453 23.3177V19.1915L58.604 19.1502Z" fill="#EEEDE3"/>
<path d="M53.9935 18.7257V16.6626L48.9904 17.2815L47.2058 17.4878C46.9884 17.5144 46.7873 17.6169 46.6381 17.7774C46.489 17.9378 46.4014 18.1459 46.3909 18.3647V26.9782C46.3938 27.0818 46.4189 27.1835 46.4646 27.2765C46.5104 27.3695 46.5755 27.4516 46.6558 27.5171C46.736 27.5827 46.8295 27.6302 46.9297 27.6565C47.0299 27.6828 47.1347 27.6871 47.2367 27.6693L48.9698 27.4527L54.2617 26.8131V24.75L48.8357 25.3793V23.4503L52.9103 22.9345V20.8714L48.8357 21.3768V19.3137L53.9935 18.7257Z" fill="#EEEDE3"/>
<path d="M35.3013 20.985V18.9219L30.3085 19.5305L28.4723 19.7574C28.253 19.7817 28.0495 19.8833 27.8983 20.0439C27.7471 20.2046 27.658 20.4139 27.6471 20.6343V30.073L30.3704 29.7636V25.7405L34.4966 25.2247V23.1616L30.3704 23.667V21.6039L35.3013 20.985Z" fill="#EEEDE3"/>
<path d="M36.8798 18.7282V28.1669C36.8798 28.5899 37.3853 28.8993 37.8392 28.8478L39.5206 28.6311L44.4927 28.0122V25.9491L39.6031 26.5577V18.3774L36.8798 18.7282Z" fill="#EEEDE3"/>
<path d="M65.9384 15.1801V17.2535L69.4766 16.8409V24.9799L72.1896 24.6704V16.5314L73.8195 16.3251L75.4493 16.1291V14.0557L73.7266 14.2517L65.9384 15.1801Z" fill="#EEEDE3"/>
</svg>
